inDegrees=yes
name=ik_S54_A05_T02
DataType=double
version=3
OpenSimVersion=4.3-2021-08-27-4bc7ad9
endheader
time	pelvis_tilt	pelvis_list	pelvis_rotation	pelvis_tx	pelvis_ty	pelvis_tz	hip_flexion_r	hip_adduction_r	hip_rotation_r	knee_angle_r	knee_angle_r_beta	ankle_angle_r	subtalar_angle_r	mtp_angle_r	hip_flexion_l	hip_adduction_l	hip_rotation_l	knee_angle_l	knee_angle_l_beta	ankle_angle_l	subtalar_angle_l	mtp_angle_l	lumbar_extension	lumbar_bending	lumbar_rotation	arm_flex_r	arm_add_r	arm_rot_r	elbow_flex_r	pro_sup_r	wrist_flex_r	wrist_dev_r	arm_flex_l	arm_add_l	arm_rot_l	elbow_flex_l	pro_sup_l	wrist_flex_l	wrist_dev_l
21.05999999999964	-6.018099807818484	-4.527135093804801	19.03274098729611	0	0.9399999999999999	0	44.41070512270516	-10.20351912881995	-10.28600663340812	54.45720072295246	0.9504574540349569	0	0	0	44.41070512270516	-10.20351912881995	-10.28600663340812	54.45720072295246	0.9504574540349569	0	0	0	-5.161521133588543	-4.855493302471466	5.087116713162895	69.68001442513899	-2.165531398523128	-8.693396834551779	42.78787434107189	104.6038798151145	0	0	31.5833281666683	-16.93806754777278	-4.019419821168898	49.10301939074609	143.233851562085	0	0
21.07999999999964	-6.040814496579094	-4.489553274054297	19.01703888682536	0	0.9399999999999999	0	44.41099931235797	-10.20316612813046	-10.28568784728751	54.45738308235906	0.9504606368070239	0	0	0	44.41099931235797	-10.20316612813046	-10.28568784728751	54.45738308235906	0.9504606368070239	0	0	0	-5.170980003157998	-4.812683277045998	5.097767590774981	69.71901029765662	-2.207270696415629	-8.680798611849147	42.34454324697569	104.8669165414796	0	0	31.60607423310093	-16.9781666740589	-4.043162877350092	49.01685434092983	143.2406139860173	0	0
21.09999999999964	-6.040998759065789	-4.485023057589374	19.00405370035965	0	0.9399999999999999	0	44.4111065902831	-10.20303830820116	-10.28557212481585	54.45744997506726	0.9504618043050275	0	0	0	44.4111065902831	-10.20303830820116	-10.28557212481585	54.45744997506726	0.9504618043050275	0	0	0	-5.169133072696543	-4.809273956465113	5.108536032778834	69.56366255296038	-2.229667031481736	-8.752990626739759	42.17835880575526	104.9410352637066	0	0	31.61067947150743	-17.17454476978039	-3.95202033709848	48.96137533575929	143.1604458442812	0	0
21.11999999999964	-6.077464855185302	-4.402354597639929	19.02280310211034	0	0.9399999999999999	0	44.41119674547418	-10.20293091181202	-10.28547487493121	54.45750616960506	0.9504627850847339	0	0	0	44.41119674547418	-10.20293091181202	-10.28547487493121	54.45750616960506	0.9504627850847339	0	0	0	-5.175703417375213	-4.721468450946722	5.135709844441159	69.37386004626408	-2.302630155367086	-8.686403033286606	42.00125874980231	105.002414337547	0	0	31.61410232329299	-17.11647024342155	-3.923897301332798	48.90445111158314	143.1123224671205	0	0
21.13999999999964	-6.098586580573888	-4.345453874128951	19.04263010122011	0	0.9399999999999999	0	44.41135149770914	-10.20274554431349	-10.28530732750854	54.45760211393377	0.9504644596291685	0	0	0	44.41135149770914	-10.20274554431349	-10.28530732750854	54.45760211393377	0.9504644596291685	0	0	0	-5.175818270958657	-4.663458353335983	5.166372996647184	68.88737001011449	-2.286678422564155	-8.774142486398723	42.00896669586659	105.1666060148672	0	0	31.61120661102803	-17.07464829970581	-3.844436087454732	48.80687577321326	143.1017619625876	0	0
21.15999999999964	-6.109914762690743	-4.300241548140898	19.05314750843829	0	0.9399999999999999	0	44.41148914618625	-10.2025809579077	-10.28515846012459	54.45768755873559	0.950465950922289	0	0	0	44.41148914618625	-10.2025809579077	-10.28515846012459	54.45768755873559	0.950465950922289	0	0	0	-5.170538693073626	-4.619435870334193	5.192659344325175	68.61545278030839	-2.305482211006065	-8.90682160185049	42.06183541541665	104.97748326493	0	0	31.59001402841201	-16.99548491116144	-3.845221787988998	48.72329338548911	143.1973879232203	0	0
21.17999999999964	-6.125524868997169	-4.261091338783991	19.05746869872308	0	0.9399999999999999	0	44.41154850885962	-10.20251103110366	-10.28509488112383	54.4577248963089	0.9504666025858778	0	0	0	44.41154850885962	-10.20251103110366	-10.28509488112383	54.4577248963089	0.9504666025858778	0	0	0	-5.172262954025395	-4.578053658754807	5.20266427395003	68.6071081462446	-2.355393272671967	-8.83089608452133	42.08302372018679	104.9711497316914	0	0	31.62280706770457	-17.01403819868938	-3.789836780050222	48.67681406828306	143.1970869022062	0	0
21.19999999999964	-6.135719087577669	-4.209816257821339	19.07803634255075	0	0.9399999999999999	0	44.41173865397073	-10.20228314379477	-10.28488888881941	54.45784257957271	0.950468656546306	0	0	0	44.41173865397073	-10.20228314379477	-10.28488888881941	54.45784257957271	0.950468656546306	0	0	0	-5.164225426401471	-4.528352002135427	5.227158602292961	68.40649697313671	-2.347163387734878	-9.004443681236756	42.26889476214787	104.9770677893886	0	0	31.61490066545352	-16.90066017466315	-3.798282603395661	48.5258022408422	143.2612919642331	0	0
21.21999999999964	-6.153943670185229	-4.155997949896656	19.07988587406601	0	0.9399999999999999	0	44.41192625543391	-10.20205794304566	-10.2846853926721	54.45795839073668	0.9504706778324277	0	0	0	44.41192625543391	-10.20205794304566	-10.2846853926721	54.45795839073668	0.9504706778324277	0	0	0	-5.162614965818419	-4.474190418281022	5.257336372593965	68.41213624585693	-2.358640686578768	-9.222151535221041	42.1984116325422	105.2349176471908	0	0	31.71339656427002	-16.94811597297081	-3.67082012237147	48.35693787209865	143.1581847807741	0	0
